<?xml version="1.0" encoding="utf-8"?>
<!-- Generator: Adobe Illustrator 22.0.1, SVG Export Plug-In . SVG Version: 6.00 Build 0)  -->
<svg version="1.1" id="Layer_1" xmlns="http://www.w3.org/2000/svg" xmlns:xlink="http://www.w3.org/1999/xlink" x="0px" y="0px"
	 viewBox="0 0 180.5 41.3" style="enable-background:new 0 0 180.5 41.3;" xml:space="preserve">
<style type="text/css">
	.st0{fill-rule:evenodd;clip-rule:evenodd;fill:#007BB6;}
</style>
<g>
	<path class="st0" d="M19.2,1.2v9.1h-1.9V1.6C17.9,1.5,18.5,1.3,19.2,1.2L19.2,1.2z"/>
	<path class="st0" d="M15.5,2.1v8.2h-1.9V2.9C14.2,2.6,14.8,2.4,15.5,2.1L15.5,2.1z"/>
	<path class="st0" d="M6.6,8.5h5.1v1.9H5.3C5.7,9.7,6.2,9.1,6.6,8.5L6.6,8.5z"/>
	<path class="st0" d="M4.3,12.2h14.9V14H3.6C3.8,13.4,4.1,12.8,4.3,12.2L4.3,12.2z"/>
	<path class="st0" d="M3,15.8h16.1v1.9H2.7C2.8,17.1,2.9,16.5,3,15.8L3,15.8z"/>
	<polygon class="st0" points="11.7,16.8 13.6,16.8 13.6,21.5 11.7,21.5 11.7,16.8 	"/>
	<polygon class="st0" points="8.1,16.8 10,16.8 10,21.5 8.1,21.5 8.1,16.8 	"/>
	<path class="st0" d="M31.9,15.9h9c0.2,0.6,0.3,1.3,0.4,1.9h-9.3V15.9L31.9,15.9z"/>
	<path class="st0" d="M31.9,12.3h7.7c0.3,0.6,0.6,1.3,0.8,1.9h-8.5V12.3L31.9,12.3z"/>
	<path class="st0" d="M33.8,5.1v5.4h-1.9V3.8C32.6,4.2,33.2,4.6,33.8,5.1L33.8,5.1z"/>
	<path class="st0" d="M30.1,2.9v15h-1.9V2.1C28.9,2.3,29.5,2.6,30.1,2.9L30.1,2.9z"/>
	<path class="st0" d="M26.4,1.6v16.3h-1.9V1.2C25.2,1.3,25.8,1.4,26.4,1.6L26.4,1.6z"/>
	<polygon class="st0" points="20.8,10.4 25.6,10.4 25.6,12.3 20.8,12.3 20.8,10.4 	"/>
	<polygon class="st0" points="20.8,6.7 25.6,6.7 25.6,8.6 20.8,8.6 20.8,6.7 	"/>
	<path class="st0" d="M24.7,30.6h1.9v8.7c-0.6,0.2-1.3,0.3-1.9,0.4V30.6L24.7,30.6z"/>
	<path class="st0" d="M28.4,30.6h1.9V38c-0.6,0.3-1.2,0.5-1.9,0.8V30.6L28.4,30.6z"/>
	<path class="st0" d="M32,30.6h6.5c-0.4,0.7-0.9,1.3-1.4,1.9H32V30.6L32,30.6z"/>
	<path class="st0" d="M24.7,26.9h15.6c-0.2,0.7-0.5,1.3-0.8,1.9H24.7V26.9L24.7,26.9z"/>
	<path class="st0" d="M24.7,23.2h16.5c-0.1,0.7-0.2,1.3-0.4,1.9H24.7V23.2L24.7,23.2z"/>
	<polygon class="st0" points="30.3,19.5 32.2,19.5 32.2,24.3 30.3,24.3 30.3,19.5 	"/>
	<polygon class="st0" points="33.9,19.5 35.8,19.5 35.8,24.3 33.9,24.3 33.9,19.5 	"/>
	<path class="st0" d="M2.7,23.4h9v1.9H3.1C2.9,24.7,2.8,24,2.7,23.4L2.7,23.4z"/>
	<path class="st0" d="M3.6,27h8.1v1.9H4.4C4.1,28.3,3.9,27.7,3.6,27L3.6,27z"/>
	<path class="st0" d="M9.8,30.8h1.9V37c-0.7-0.4-1.3-0.9-1.9-1.4V30.8L9.8,30.8z"/>
	<path class="st0" d="M13.5,23.4h1.9v15.3c-0.6-0.2-1.3-0.5-1.9-0.8V23.4L13.5,23.4z"/>
	<path class="st0" d="M17.2,23.4h1.9v16.3c-0.6-0.1-1.2-0.2-1.9-0.4V23.4L17.2,23.4z"/>
	<polygon class="st0" points="18.1,28.9 22.8,28.9 22.8,30.8 18.1,30.8 18.1,28.9 	"/>
	<polygon class="st0" points="18.1,32.6 22.8,32.6 22.8,34.5 18.1,34.5 18.1,32.6 	"/>
	<path class="st0" d="M64.7,22c0-5.6-3.1-8.3-7.5-8.3c-4.4,0-8,3.3-8,8.7c0,5.1,2.4,8.3,7.5,8.3C61.1,30.8,64.7,27.5,64.7,22
		L64.7,22L64.7,22z M61.3,22.3c0,3.9-2.3,5.6-4.4,5.6c-3,0-4.4-2.3-4.4-5.8c0-3.7,2.1-5.5,4.4-5.5C59.8,16.6,61.3,18.6,61.3,22.3
		L61.3,22.3L61.3,22.3z"/>
	<path class="st0" d="M80.6,30.5v-2c-0.6-0.1-1.4-0.2-2-0.3V22c0-2.1-0.9-3.9-3.6-3.9c-1.9,0-3.3,0.9-3.9,2.2H71
		c0.1-0.7,0.2-1.7,0.2-2.4v-5.2c-1.8-0.1-3.7,0-5.2,0.2v1.9c0.7,0.1,1.5,0.1,2.1,0.2v13.1c-0.7,0.1-1.5,0.2-2.1,0.3v2h7v-2
		c-0.6-0.1-1.2-0.2-1.8-0.3v-3.6c0-2.1,1.2-3.9,2.8-3.9c1.2,0,1.5,0.8,1.5,2.1v7.7H80.6L80.6,30.5z"/>
	<path class="st0" d="M87.2,14.9c0-1.1-0.9-1.9-1.9-1.9c-1.1,0-1.9,0.9-1.9,1.9c0,1.1,0.9,1.9,1.9,1.9C86.4,16.8,87.2,16,87.2,14.9
		L87.2,14.9L87.2,14.9z M88.8,30.5v-2c-0.6-0.1-1.3-0.2-2-0.3v-9.9c-1.8-0.1-3.6,0-5.2,0.2v1.9c0.7,0.1,1.6,0.2,2.1,0.3v7.4
		c-0.7,0.1-1.5,0.2-2.1,0.3v2H88.8L88.8,30.5z"/>
	<path class="st0" d="M101.6,24.2c0-4.1-2.2-6.1-5.6-6.1c-3.7,0-6.2,2.7-6.2,6.5c0,4.4,2.2,6.1,5.6,6.1C99,30.7,101.6,28,101.6,24.2
		L101.6,24.2L101.6,24.2z M98.4,24.3c0,2.5-1.1,3.7-2.7,3.7c-1.8,0-2.7-1.2-2.7-3.7c0-2.5,1.4-3.6,2.8-3.6
		C97.5,20.8,98.4,22,98.4,24.3L98.4,24.3L98.4,24.3z"/>
	<path class="st0" d="M120.5,30.5v-2c-0.6-0.1-1.4-0.2-2.1-0.3V16.3c0.7,0,1.4-0.1,2.1-0.3V14h-7.1v2c0.6,0.1,1.2,0.2,1.8,0.2v4.4
		h-6.9v-4.4c0.6,0,1.2-0.1,1.8-0.2v-2H103V16c0.6,0.1,1.4,0.3,2.1,0.3v11.9c-0.7,0.1-1.5,0.2-2.1,0.3v2h7.1v-2
		c-0.6-0.1-1.2-0.2-1.8-0.3v-4.9h6.9v4.9c-0.6,0.1-1.2,0.1-1.8,0.3v2H120.5L120.5,30.5z"/>
	<path class="st0" d="M132.4,23.5c0-3-1.6-5.4-5.1-5.4c-3.6,0-5.7,2.7-5.7,6.4c0,4.2,2.1,6.1,6,6.1c1.5,0,3.1-0.2,4.4-0.7l-0.3-2.4
		c-1.1,0.5-2.4,0.7-3.6,0.7c-2.2,0-3.4-1.1-3.3-3.4h7.5C132.4,24.4,132.4,23.9,132.4,23.5L132.4,23.5L132.4,23.5z M129.4,22.8h-4.5
		c0.2-1.5,1.1-2.4,2.4-2.4C128.6,20.4,129.4,21.3,129.4,22.8L129.4,22.8L129.4,22.8z"/>
	<path class="st0" d="M146.2,30.3v-2c-0.6-0.1-1.4-0.1-2-0.2v-5.8c0-2.6-1.1-4.3-5-4.3c-1.6,0-3,0.3-4.2,0.6v3.6h1.9
		c0.1-0.5,0.2-1.1,0.3-1.6c0.5-0.1,1.1-0.2,1.6-0.2c1.7,0,2.3,0.6,2.3,1.9v0.7c-4.1,0.1-7,1.5-7,4.4c0,1.9,1.2,3.1,3.4,3.1
		c1.8,0,3.3-0.9,3.9-2.3h0.1c-0.1,0.6-0.1,1.4-0.1,2.1C142.9,30.5,144.7,30.5,146.2,30.3L146.2,30.3L146.2,30.3z M141.1,25.4
		c0,1.5-1.1,2.9-2.6,2.9c-0.9,0-1.4-0.5-1.4-1.3c0-1.1,1.1-1.9,4.1-1.9V25.4L141.1,25.4z"/>
	<path class="st0" d="M152.3,28.2V12.7c-1.8-0.1-3.7,0-5.3,0.2v1.9c0.7,0.1,1.6,0.1,2.1,0.2v13.1c-0.7,0.1-1.5,0.2-2.1,0.3v2h7.2v-2
		C153.6,28.4,153,28.3,152.3,28.2L152.3,28.2L152.3,28.2z"/>
	<path class="st0" d="M162.4,30.4v-2.5c-0.4,0.1-1,0.2-1.5,0.2c-1.1,0-1.4-0.5-1.4-2v-5.4h2.9v-2.4h-2.9v-4.5l-3.1,0.8v3.7h-2.1v2.4
		h2.1v6.1c0,2.9,0.8,3.8,3.5,3.8C160.8,30.7,161.7,30.6,162.4,30.4L162.4,30.4L162.4,30.4z"/>
	<path class="st0" d="M178.4,30.5v-2c-0.6-0.1-1.4-0.2-2-0.3V22c0-2.1-0.9-3.9-3.6-3.9c-1.9,0-3.3,0.9-4,2.2l0,0
		c0.1-0.7,0.2-1.7,0.2-2.4v-5.2c-1.8-0.1-3.7,0-5.2,0.2v1.9c0.6,0.1,1.5,0.1,2.1,0.2v13.1c-0.7,0.1-1.5,0.2-2.1,0.3v2h7v-2
		c-0.6-0.1-1.2-0.2-1.8-0.3v-3.6c0-2.1,1.2-3.9,2.8-3.9c1.1,0,1.5,0.8,1.5,2.1v7.7H178.4L178.4,30.5z"/>
</g>
</svg>
