<?xml version="1.0" encoding="utf-8"?>
<!-- Generator: Adobe Illustrator 14.0.0, SVG Export Plug-In . SVG Version: 6.00 Build 43363)  -->
<!DOCTYPE svg PUBLIC "-//W3C//DTD SVG 1.1//EN" "http://www.w3.org/Graphics/SVG/1.1/DTD/svg11.dtd">
<svg version="1.1" id="Layer_1" xmlns="http://www.w3.org/2000/svg" xmlns:xlink="http://www.w3.org/1999/xlink" x="0px" y="0px"
	 width="612px" height="792px" viewBox="0 0 612 792" enable-background="new 0 0 612 792" xml:space="preserve">
<g>
	<polygon fill-rule="evenodd" clip-rule="evenodd" fill="none" points="209,300 401.756,300 401.756,492.756 209,492.756 
		209,300 	"/>
	<path fill-rule="evenodd" clip-rule="evenodd" fill="#007BB6" d="M234.021,377.157v9.092h-1.928v-8.721
		C232.725,377.373,233.368,377.248,234.021,377.157L234.021,377.157z"/>
	<path fill-rule="evenodd" clip-rule="evenodd" fill="#007BB6" d="M230.309,378.06v8.189h-1.856v-7.426
		C229.055,378.538,229.674,378.283,230.309,378.06L230.309,378.06z"/>
	<path fill-rule="evenodd" clip-rule="evenodd" fill="#007BB6" d="M221.47,384.393h5.126v1.856h-6.42
		C220.572,385.604,221.004,384.984,221.47,384.393L221.47,384.393z"/>
	<path fill-rule="evenodd" clip-rule="evenodd" fill="#007BB6" d="M219.17,388.105h14.851v1.856h-15.614
		C218.63,389.328,218.885,388.708,219.17,388.105L219.17,388.105z"/>
	<path fill-rule="evenodd" clip-rule="evenodd" fill="#007BB6" d="M217.875,391.747h16.146v1.928h-16.518
		C217.596,393.021,217.72,392.378,217.875,391.747L217.875,391.747z"/>
	<polygon fill-rule="evenodd" clip-rule="evenodd" fill="#007BB6" points="226.524,392.675 228.452,392.675 228.452,397.389 
		226.524,397.389 226.524,392.675 	"/>
	<polygon fill-rule="evenodd" clip-rule="evenodd" fill="#007BB6" points="222.883,392.675 224.811,392.675 224.811,397.389 
		222.883,397.389 222.883,392.675 	"/>
	<path fill-rule="evenodd" clip-rule="evenodd" fill="#007BB6" d="M246.731,391.819h8.953c0.153,0.631,0.275,1.274,0.364,1.928
		h-9.317V391.819L246.731,391.819z"/>
	<path fill-rule="evenodd" clip-rule="evenodd" fill="#007BB6" d="M246.731,388.177h7.672c0.293,0.626,0.555,1.269,0.781,1.928
		h-8.454V388.177L246.731,388.177z"/>
	<path fill-rule="evenodd" clip-rule="evenodd" fill="#007BB6" d="M248.659,381.023v5.369h-1.928v-6.682
		C247.401,380.11,248.045,380.549,248.659,381.023L248.659,381.023z"/>
	<path fill-rule="evenodd" clip-rule="evenodd" fill="#007BB6" d="M244.946,378.769v14.978h-1.856v-15.725
		C243.725,378.24,244.344,378.489,244.946,378.769L244.946,378.769z"/>
	<path fill-rule="evenodd" clip-rule="evenodd" fill="#007BB6" d="M241.233,377.486v16.261h-1.856v-16.603
		C240.006,377.229,240.625,377.343,241.233,377.486L241.233,377.486z"/>
	<polygon fill-rule="evenodd" clip-rule="evenodd" fill="#007BB6" points="235.664,386.321 240.376,386.321 240.376,388.177 
		235.664,388.177 235.664,386.321 	"/>
	<polygon fill-rule="evenodd" clip-rule="evenodd" fill="#007BB6" points="235.664,382.607 240.376,382.607 240.376,384.535 
		235.664,384.535 235.664,382.607 	"/>
	<path fill-rule="evenodd" clip-rule="evenodd" fill="#007BB6" d="M239.52,406.527h1.928v8.711
		c-0.631,0.154-1.274,0.279-1.928,0.373V406.527L239.52,406.527z"/>
	<path fill-rule="evenodd" clip-rule="evenodd" fill="#007BB6" d="M243.232,406.527h1.856v7.414
		c-0.602,0.285-1.222,0.539-1.856,0.762V406.527L243.232,406.527z"/>
	<path fill-rule="evenodd" clip-rule="evenodd" fill="#007BB6" d="M246.875,406.527h6.489c-0.413,0.672-0.866,1.314-1.355,1.928
		h-5.134V406.527L246.875,406.527z"/>
	<path fill-rule="evenodd" clip-rule="evenodd" fill="#007BB6" d="M239.52,402.814h15.615c-0.232,0.66-0.499,1.303-0.798,1.928
		H239.52V402.814L239.52,402.814z"/>
	<path fill-rule="evenodd" clip-rule="evenodd" fill="#007BB6" d="M239.52,399.102h16.519c-0.092,0.654-0.216,1.297-0.372,1.928
		H239.52V399.102L239.52,399.102z"/>
	<polygon fill-rule="evenodd" clip-rule="evenodd" fill="#007BB6" points="245.089,395.46 247.017,395.46 247.017,400.174 
		245.089,400.174 245.089,395.46 	"/>
	<polygon fill-rule="evenodd" clip-rule="evenodd" fill="#007BB6" points="248.731,395.46 250.659,395.46 250.659,400.174 
		248.731,400.174 248.731,395.46 	"/>
	<path fill-rule="evenodd" clip-rule="evenodd" fill="#007BB6" d="M217.534,399.316h8.99v1.855h-8.613
		C217.756,400.564,217.629,399.945,217.534,399.316L217.534,399.316z"/>
	<path fill-rule="evenodd" clip-rule="evenodd" fill="#007BB6" d="M218.458,402.957h8.066v1.857h-7.286
		C218.947,404.213,218.687,403.592,218.458,402.957L218.458,402.957z"/>
	<path fill-rule="evenodd" clip-rule="evenodd" fill="#007BB6" d="M224.596,406.67h1.928v6.232
		c-0.671-0.416-1.314-0.873-1.928-1.365V406.67L224.596,406.67z"/>
	<path fill-rule="evenodd" clip-rule="evenodd" fill="#007BB6" d="M228.31,399.316h1.856v15.35c-0.635-0.229-1.254-0.49-1.856-0.781
		V399.316L228.31,399.316z"/>
	<path fill-rule="evenodd" clip-rule="evenodd" fill="#007BB6" d="M232.022,399.316h1.856V415.6
		c-0.629-0.094-1.249-0.217-1.856-0.369V399.316L232.022,399.316z"/>
	<polygon fill-rule="evenodd" clip-rule="evenodd" fill="#007BB6" points="232.879,404.814 237.592,404.814 237.592,406.742 
		232.879,406.742 232.879,404.814 	"/>
	<polygon fill-rule="evenodd" clip-rule="evenodd" fill="#007BB6" points="232.879,408.527 237.592,408.527 237.592,410.383 
		232.879,410.383 232.879,408.527 	"/>
	<path fill-rule="evenodd" clip-rule="evenodd" fill="#007BB6" d="M279.506,397.959c0-5.641-3.07-8.283-7.498-8.283
		c-4.355,0-7.997,3.285-7.997,8.71c0,5.07,2.428,8.283,7.497,8.283C275.936,406.67,279.506,403.387,279.506,397.959L279.506,397.959
		L279.506,397.959z M276.15,398.174c0,3.928-2.285,5.641-4.427,5.641c-2.999,0-4.355-2.285-4.355-5.783
		c0-3.713,2.142-5.499,4.355-5.499C274.579,392.533,276.15,394.532,276.15,398.174L276.15,398.174L276.15,398.174z"/>
	<path fill-rule="evenodd" clip-rule="evenodd" fill="#007BB6" d="M295.429,406.385v-2c-0.643-0.07-1.357-0.213-2-0.285v-6.211
		c0-2.143-0.928-3.856-3.642-3.856c-1.857,0-3.285,0.856-3.927,2.213h-0.071c0.143-0.714,0.214-1.714,0.214-2.428v-5.212
		c-1.785-0.071-3.713,0-5.212,0.214v1.928c0.714,0.071,1.5,0.143,2.071,0.214V404.1c-0.714,0.072-1.5,0.215-2.071,0.285v2h6.998v-2
		c-0.571-0.143-1.214-0.213-1.785-0.285v-3.57c0-2.143,1.214-3.927,2.785-3.927c1.214,0,1.5,0.786,1.5,2.071v7.711H295.429
		L295.429,406.385z"/>
	<path fill-rule="evenodd" clip-rule="evenodd" fill="#007BB6" d="M302.069,390.819c0-1.071-0.857-1.856-1.928-1.856
		c-1.071,0-1.928,0.857-1.928,1.856c0,1.071,0.856,1.928,1.928,1.928C301.212,392.747,302.069,391.89,302.069,390.819
		L302.069,390.819L302.069,390.819z M303.641,406.385v-2c-0.571-0.07-1.286-0.213-2-0.285v-9.854c-1.785-0.071-3.642,0-5.212,0.214
		v1.928c0.714,0.072,1.571,0.214,2.142,0.286v7.426c-0.714,0.072-1.5,0.215-2.142,0.285v2H303.641L303.641,406.385z"/>
	<path fill-rule="evenodd" clip-rule="evenodd" fill="#007BB6" d="M316.422,400.102c0-4.142-2.214-6.069-5.642-6.069
		c-3.713,0-6.212,2.714-6.212,6.497c0,4.355,2.214,6.07,5.641,6.07C313.852,406.6,316.422,403.885,316.422,400.102L316.422,400.102
		L316.422,400.102z M313.208,400.244c0,2.5-1.143,3.713-2.713,3.713c-1.785,0-2.713-1.213-2.713-3.713s1.356-3.57,2.784-3.57
		C312.352,396.674,313.208,397.959,313.208,400.244L313.208,400.244L313.208,400.244z"/>
	<path fill-rule="evenodd" clip-rule="evenodd" fill="#007BB6" d="M335.344,406.385v-2c-0.643-0.07-1.356-0.213-2.071-0.285v-11.924
		c0.715,0,1.429-0.143,2.071-0.285v-1.928h-7.069v2c0.571,0.143,1.214,0.214,1.785,0.214v4.356h-6.926v-4.356
		c0.571,0,1.214-0.071,1.785-0.214v-2h-7.069v1.928c0.571,0.143,1.356,0.285,2.07,0.285V404.1c-0.714,0.072-1.499,0.215-2.07,0.285
		v2h7.069v-2c-0.571-0.143-1.214-0.213-1.785-0.285v-4.855h6.926v4.855c-0.571,0.072-1.214,0.143-1.785,0.285v2H335.344
		L335.344,406.385z"/>
	<path fill-rule="evenodd" clip-rule="evenodd" fill="#007BB6" d="M347.269,399.387c0-2.999-1.571-5.354-5.07-5.354
		c-3.642,0-5.712,2.714-5.712,6.427c0,4.213,2.142,6.141,5.997,6.141c1.5,0,3.071-0.215,4.356-0.715l-0.286-2.428
		c-1.071,0.5-2.356,0.715-3.57,0.715c-2.213,0-3.355-1.072-3.284-3.355h7.497C347.269,400.316,347.269,399.816,347.269,399.387
		L347.269,399.387L347.269,399.387z M344.197,398.744h-4.498c0.214-1.498,1.071-2.427,2.356-2.427
		C343.412,396.317,344.197,397.174,344.197,398.744L344.197,398.744L344.197,398.744z"/>
	<path fill-rule="evenodd" clip-rule="evenodd" fill="#007BB6" d="M360.978,406.242v-2c-0.643-0.07-1.428-0.143-1.999-0.213v-5.785
		c0-2.641-1.071-4.283-4.998-4.283c-1.571,0-3,0.285-4.213,0.643v3.57h1.928c0.143-0.5,0.214-1.072,0.285-1.571
		c0.5-0.143,1.071-0.214,1.643-0.214c1.714,0,2.285,0.643,2.285,1.928v0.713c-4.142,0.072-6.998,1.5-6.998,4.428
		c0,1.928,1.214,3.143,3.428,3.143c1.785,0,3.284-0.928,3.855-2.285h0.071c-0.143,0.643-0.143,1.357-0.143,2.07
		C357.692,406.457,359.55,406.385,360.978,406.242L360.978,406.242L360.978,406.242z M355.908,401.314
		c0,1.5-1.071,2.928-2.643,2.928c-0.856,0-1.428-0.5-1.428-1.285c0-1.143,1.143-1.855,4.07-1.855V401.314L355.908,401.314z"/>
	<path fill-rule="evenodd" clip-rule="evenodd" fill="#007BB6" d="M367.118,404.1v-15.494c-1.785-0.071-3.713,0-5.284,0.214v1.928
		c0.714,0.071,1.571,0.143,2.143,0.214V404.1c-0.714,0.072-1.499,0.215-2.143,0.285v2h7.212v-2
		C368.475,404.314,367.832,404.172,367.118,404.1L367.118,404.1L367.118,404.1z"/>
	<path fill-rule="evenodd" clip-rule="evenodd" fill="#007BB6" d="M377.258,406.314v-2.5c-0.429,0.143-1,0.215-1.5,0.215
		c-1.07,0-1.428-0.5-1.428-2v-5.355h2.928v-2.428h-2.928v-4.498l-3.142,0.785v3.713h-2.071v2.428h2.143v6.141
		c0,2.857,0.785,3.785,3.499,3.785C375.615,406.6,376.544,406.527,377.258,406.314L377.258,406.314L377.258,406.314z"/>
	<path fill-rule="evenodd" clip-rule="evenodd" fill="#007BB6" d="M393.252,406.385v-2c-0.643-0.07-1.356-0.213-1.999-0.285v-6.211
		c0-2.143-0.929-3.856-3.642-3.856c-1.856,0-3.285,0.856-3.999,2.213l0,0c0.144-0.714,0.215-1.714,0.215-2.428v-5.212
		c-1.785-0.071-3.714,0-5.213,0.214v1.928c0.643,0.071,1.499,0.143,2.07,0.214V404.1c-0.714,0.072-1.499,0.215-2.07,0.285v2h6.997
		v-2c-0.57-0.143-1.213-0.213-1.784-0.285v-3.57c0-2.143,1.214-3.927,2.784-3.927c1.143,0,1.5,0.786,1.5,2.071v7.711H393.252
		L393.252,406.385z"/>
</g>
</svg>
